<?xml version="1.0" encoding="UTF-8"?>
<svg id="Layer_1" data-name="Layer 1" xmlns="http://www.w3.org/2000/svg" viewBox="0 0 550.67 477.33">
  <defs>
    <style>
      .cls-1 {
        fill: #ee3224;
      }

      .cls-2 {
        fill: #70bf44;
      }

      .cls-3 {
        fill: #f9bd15;
      }

      .cls-4 {
        fill: #8d51a0;
      }
    </style>
  </defs>
  <path class="cls-1" d="M326.24,46.46l-46.09,49.7h-115.67s-62.36,7.23-62.36,79.53,94.89,66.87,100.31,63.26l-48.8,47.9s-109.35-26.21-99.41-131.04c9.94-104.83,119.29-109.35,119.29-109.35h152.72Z"/>
  <path class="cls-1" d="M231.03,431.43l46.09-49.7h115.67s62.36-7.23,62.36-79.53c0-72.3-94.89-66.87-100.31-63.26l48.8-47.9s109.35,26.21,99.41,131.04c-9.94,104.83-119.29,109.35-119.29,109.35h-152.72Z"/>
  <polygon class="cls-3" points="394.92 46.46 364.2 46.46 220.51 191.05 251.23 191.05 394.92 46.46"/>
  <polygon class="cls-4" points="367.36 143.15 336.63 143.15 192.95 287.74 223.67 287.74 367.36 143.15"/>
  <polygon class="cls-2" points="336.63 238.94 305.91 238.94 162.22 383.54 192.95 383.54 336.63 238.94"/>
</svg>